<?xml version="1.0" encoding="utf-8"?><svg xmlns="http://www.w3.org/2000/svg" xmlns:xlink="http://www.w3.org/1999/xlink" width="1496" height="762" preserveAspectRatio="xMidYMid" viewBox="0 0 1496 762" style="z-index:1;margin-right:-2px;display:block;background-repeat-y:initial;background-repeat-x:initial;background-color:rgb(255, 255, 255);animation-play-state:paused" ><g transform="" style="animation-play-state:paused" ><path id="path0" d="M 1379.719506750992 514.3221957937322
c 0 20.017816231864945 -4.89797631205206 5.7497982793654625 -10.647774591417523 5.7497982793654625
S 1358.4239575681568 534.3400120255972 1358.4239575681568 514.3221957937322
s 4.89797631205206 -5.7497982793654625 10.647774591417523 -5.7497982793654625
S 1379.719506750992 494.3043795618673 1379.719506750992 514.3221957937322
z" fill="none" stroke="none" style="animation-play-state:paused" ></path>


<circle cx="0" cy="0" r="6.636207709795123" fill="#de9dd6" transform="translate(1358.4837646484375 510.8737487792969)" style="animation-play-state:paused" ></circle>
<path id="path1" d="M 1169.4761454481122 334.60024152726794
c 0 30.58252974993728 -7.482959406899546 8.78434365157773 -16.267303058477275 8.78434365157773
S 1136.9415393311579 365.18277127720523 1136.9415393311579 334.60024152726794
s 7.482959406899546 -8.78434365157773 16.267303058477275 -8.78434365157773
S 1169.4761454481122 304.01771177733065 1169.4761454481122 334.60024152726794
z" fill="none" stroke="none" style="animation-play-state:paused" ></path>


<circle cx="0" cy="0" r="7.8866954919899435" fill="#e0ff77" transform="translate(1169.0755615234375 344.3623352050781)" style="animation-play-state:paused" ></circle>
<path id="path2" d="M 1206.3802135664207 640.6428888832513
c 0 31.719898409595036 -7.761251738517934 9.111034649564532 -16.872286388082465 9.111034649564532
S 1172.6356407902556 672.3627872928464 1172.6356407902556 640.6428888832513
s 7.761251738517934 -9.111034649564532 16.872286388082465 -9.111034649564532
S 1206.3802135664207 608.9229904736562 1206.3802135664207 640.6428888832513
z" fill="none" stroke="none" style="animation-play-state:paused" ></path>


<circle cx="0" cy="0" r="4.620989905120926" fill="#de9dd6" transform="translate(1206.368408203125 642.6949462890625)" style="animation-play-state:paused" ></circle>
<path id="path3" d="M 770.3203999652633 120.55457487293772
c 0 22.360654120299248 -5.471223880498751 6.422741077107231 -11.893964957605982 6.422741077107231
S 746.5324700500514 142.91522899323698 746.5324700500514 120.55457487293772
s 5.471223880498751 -6.422741077107231 11.893964957605982 -6.422741077107231
S 770.3203999652633 98.19392075263848 770.3203999652633 120.55457487293772
z" fill="none" stroke="none" style="animation-play-state:paused" ></path>


<circle cx="0" cy="0" r="7.644208965350321" fill="#51cacc" transform="translate(761.3535766601562 113.1693344116211)" style="animation-play-state:paused" ></circle>
<path id="path4" d="M 863.1666975714267 388.48756509181925
c 0 37.036017955096774 -9.062004393268358 10.638005157315032 -19.700009550583392 10.638005157315032
S 823.7666784702598 425.52358304691603 823.7666784702598 388.48756509181925
s 9.062004393268358 -10.638005157315032 19.700009550583392 -10.638005157315032
S 863.1666975714267 351.45154713672247 863.1666975714267 388.48756509181925
z" fill="none" stroke="none" style="animation-play-state:paused" ></path>


<circle cx="0" cy="0" r="6.245518484932514" fill="#51cacc" transform="translate(843.1555786132812 399.1333312988281)" style="animation-play-state:paused" ></circle>
<path id="path5" d="M 220.18638436439954 420.47807924073214
c 0 36.54095420882101 -8.940871774498756 10.495805996150716 -19.436677770649474 10.495805996150716
S 181.31302882310058 457.01903344955315 181.31302882310058 420.47807924073214
s 8.940871774498756 -10.495805996150716 19.436677770649474 -10.495805996150716
S 220.18638436439954 383.93712503191114 220.18638436439954 420.47807924073214
z" fill="none" stroke="none" style="animation-play-state:paused" ></path>


<circle cx="0" cy="0" r="7.849223811801136" fill="#9df871" transform="translate(189.97903442382812 403.6612854003906)" style="animation-play-state:paused" ></circle>
<path id="path6" d="M 1375.9731760274844 238.47197515867774
c 0 30.80275218576268 -7.536843619920655 8.84759903208077 -16.384442652001425 8.84759903208077
S 1343.2042907234818 269.2747273444404 1343.2042907234818 238.47197515867774
s 7.536843619920655 -8.84759903208077 16.384442652001425 -8.84759903208077
S 1375.9731760274844 207.66922297291507 1375.9731760274844 238.47197515867774
z" fill="none" stroke="none" style="animation-play-state:paused" ></path>


<circle cx="0" cy="0" r="4.343761268348013" fill="#de9dd6" transform="translate(1356.628173828125 248.06263732910156)" style="animation-play-state:paused" ></circle>
<path id="path7" d="M 711.0556747278089 510.78873702528506
c 0 25.338697068736554 -6.199893963627028 7.278136392083904 -13.478030355710933 7.278136392083904
S 684.0996140163869 536.1274340940216 684.0996140163869 510.78873702528506
s 6.199893963627028 -7.278136392083904 13.478030355710933 -7.278136392083904
S 711.0556747278089 485.4500399565485 711.0556747278089 510.78873702528506
z" fill="none" stroke="none" style="animation-play-state:paused" ></path>


<circle cx="0" cy="0" r="7.289313753392392" fill="#9df871" transform="translate(698.0496215820312 503.48553466796875)" style="animation-play-state:paused" ></circle>
<path id="path8" d="M 251.75059081417737 78.17885685832343
c 0 23.178973635392506 -5.6714509958939106 6.657790299527634 -12.329241295421545 6.657790299527634
S 227.09210822333426 101.35783049371594 227.09210822333426 78.17885685832343
s 5.6714509958939106 -6.657790299527634 12.329241295421545 -6.657790299527634
S 251.75059081417737 54.99988322293092 251.75059081417737 78.17885685832343
z" fill="none" stroke="none" style="animation-play-state:paused" ></path>


<circle cx="0" cy="0" r="4.596220485664493" fill="#9df871" transform="translate(227.31228637695312 84.71232604980469)" style="animation-play-state:paused" ></circle>
<path id="path9" d="M 361.243390008488 541.3878064308448
c 0 22.224503222827753 -5.437910363032322 6.3836339044292485 -11.82154426746157 6.3836339044292485
S 337.6003014735649 563.6123096536725 337.6003014735649 541.3878064308448
s 5.437910363032322 -6.3836339044292485 11.82154426746157 -6.3836339044292485
S 361.243390008488 519.163303208017 361.243390008488 541.3878064308448
z" fill="none" stroke="none" style="animation-play-state:paused" ></path>


<circle cx="0" cy="0" r="7.238035639347363" fill="#51cacc" transform="translate(357.1075744628906 530.2561645507812)" style="animation-play-state:paused" ></circle>
<path id="path10" d="M 125.09953021192797 134.18105370502505
c 0 20.069120684009604 -4.91052952906618 5.764534664555951 -10.67506419362213 5.764534664555951
S 103.7494018246837 154.25017438903467 103.7494018246837 134.18105370502505
s 4.91052952906618 -5.764534664555951 10.67506419362213 -5.764534664555951
S 125.09953021192797 114.11193302101545 125.09953021192797 134.18105370502505
z" fill="none" stroke="none" style="animation-play-state:paused" ></path>


<circle cx="0" cy="0" r="6.983493658697949" fill="#ff708e" transform="translate(110.9657974243164 141.3708038330078)" style="animation-play-state:paused" ></circle>
<path id="path11" d="M 785.5128228857873 650.6485600880425
c 0 34.39061233935505 -8.414724295799639 9.87815460811262 -18.29287890391226 9.87815460811262
S 748.9270650779627 685.0391724273975 748.9270650779627 650.6485600880425
s 8.414724295799639 -9.87815460811262 18.29287890391226 -9.87815460811262
S 785.5128228857873 616.2579477486875 785.5128228857873 650.6485600880425
z" fill="none" stroke="none" style="animation-play-state:paused" ></path>


<circle cx="0" cy="0" r="7.540837914078185" fill="#9df871" transform="translate(761.6674194335938 638.5980224609375)" style="animation-play-state:paused" ></circle>
<path id="path12" d="M 379.1727255425134 277.7571015725914
c 0 23.94448418286143 -5.858756768146946 6.877670988694241 -12.736427756841186 6.877670988694241
S 353.699870028831 301.7015857554528 353.699870028831 277.7571015725914
s 5.858756768146946 -6.877670988694241 12.736427756841186 -6.877670988694241
S 379.1727255425134 253.81261738972998 379.1727255425134 277.7571015725914
z" fill="none" stroke="none" style="animation-play-state:paused" ></path>


<circle cx="0" cy="0" r="6.407931781878242" fill="#de9dd6" transform="translate(364.6186828613281 285.0029296875)" style="animation-play-state:paused" ></circle>
<path id="path13" d="M 1010.1248614027392 121.76273221677724
c 0 26.551922715265047 -6.496747047352085 7.626616099065493 -14.123363146417578 7.626616099065493
S 981.8781351099041 148.3146549320423 981.8781351099041 121.76273221677724
s 6.496747047352085 -7.626616099065493 14.123363146417578 -7.626616099065493
S 1010.1248614027392 95.21080950151219 1010.1248614027392 121.76273221677724
z" fill="none" stroke="none" style="animation-play-state:paused" ></path>


<circle cx="0" cy="0" r="4.027870690186804" fill="#51cacc" transform="translate(994.3339233398438 129.67263793945312)" style="animation-play-state:paused" ></circle>
<path id="path14" d="M 1486.2015209216759 504.85980259202046
c 0 27.37597929983105 -6.698377913788448 7.863313203142962 -14.56169111693141 7.863313203142962
S 1457.0781386878132 532.2357818918515 1457.0781386878132 504.85980259202046
s 6.698377913788448 -7.863313203142962 14.56169111693141 -7.863313203142962
S 1486.2015209216759 477.4838232921894 1486.2015209216759 504.85980259202046
z" fill="none" stroke="none" style="animation-play-state:paused" ></path>


<circle cx="0" cy="0" r="7.199444995509243" fill="#e0ff77" transform="translate(1469.958740234375 513.0028686523438)" style="animation-play-state:paused" ></circle>
<path id="path15" d="M 322.9356515352739 748.2881185026815
c 0 36.73015631275312 -8.987165906311931 10.550151281322703 -19.537317187634635 10.550151281322703
S 283.8610171600046 785.0182748154347 283.8610171600046 748.2881185026815
s 8.987165906311931 -10.550151281322703 19.537317187634635 -10.550151281322703
S 322.9356515352739 711.5579621899284 322.9356515352739 748.2881185026815
z" fill="none" stroke="none" style="animation-play-state:paused" ></path>


<circle cx="0" cy="0" r="6.833135551165933" fill="#e0ff77" transform="translate(290.5797119140625 766.767333984375)" style="animation-play-state:paused" ></circle>
<path id="path16" d="M 28.00082793117236 398.8170778136326
c 0 36.484581709751005 -8.927078503449712 10.479613895354012 -19.406692398803724 10.479613895354012
S -10.812556866435086 435.3016595233836 -10.812556866435086 398.8170778136326
s 8.927078503449712 -10.479613895354012 19.406692398803724 -10.479613895354012
S 28.00082793117236 362.33249610388157 28.00082793117236 398.8170778136326
z" fill="none" stroke="none" style="animation-play-state:paused" ></path>


<circle cx="0" cy="0" r="6.751673502370236" fill="#9df871" transform="translate(-10.733457565307617 404.2627258300781)" style="animation-play-state:paused" ></circle>
<path id="path17" d="M 282.12199836736096 667.968121944589
c 0 27.205157170761243 -6.656581009867112 7.814247272452698 -14.47082828231981 7.814247272452698
S 253.18034180272133 695.1732791153503 253.18034180272133 667.968121944589
s 6.656581009867112 -7.814247272452698 14.47082828231981 -7.814247272452698
S 282.12199836736096 640.7629647738278 282.12199836736096 667.968121944589
z" fill="none" stroke="none" style="animation-play-state:paused" ></path>


<circle cx="0" cy="0" r="7.3606188966557" fill="#ff708e" transform="translate(262.864990234375 658.1492919921875)" style="animation-play-state:paused" ></circle>
<path id="path18" d="M 70.40194834650194 509.72412109826104
c 0 29.887169878152417 -7.31281816167559 8.584612624575694 -15.897430786251284 8.584612624575694
S 38.60708677399937 539.6112909764134 38.60708677399937 509.72412109826104
s 7.31281816167559 -8.584612624575694 15.897430786251284 -8.584612624575694
S 70.40194834650194 479.83695122010863 70.40194834650194 509.72412109826104
z" fill="none" stroke="none" style="animation-play-state:paused" ></path>


<circle cx="0" cy="0" r="4.766600847571331" fill="#de9dd6" transform="translate(49.35160827636719 520.4330444335938)" style="animation-play-state:paused" ></circle>
<path id="path19" d="M 517.185095183176 698.0428393714164
c 0 30.16800088761881 -7.381532132076942 8.66527685069902 -16.04680898277596 8.66527685069902
S 485.0914772176241 728.2108402590353 485.0914772176241 698.0428393714164
s 7.381532132076942 -8.66527685069902 16.04680898277596 -8.66527685069902
S 517.185095183176 667.8748384837976 517.185095183176 698.0428393714164
z" fill="none" stroke="none" style="animation-play-state:paused" ></path>


<circle cx="0" cy="0" r="4.890716067451898" fill="#9df871" transform="translate(494.577880859375 686.1629638671875)" style="animation-play-state:paused" ></circle>
<path id="path20" d="M 245.6286219462206 570.9916865103482
c 0 37.44732484185728 -9.162643312369333 10.756146497129219 -19.918789809498552 10.756146497129219
S 205.7910423272235 608.4390113522055 205.7910423272235 570.9916865103482
s 9.162643312369333 -10.756146497129219 19.918789809498552 -10.756146497129219
S 245.6286219462206 533.544361668491 245.6286219462206 570.9916865103482
z" fill="none" stroke="none" style="animation-play-state:paused" ></path>


<circle cx="0" cy="0" r="5.209445859656978" fill="#51cacc" transform="translate(221.3871612548828 583.0233764648438)" style="animation-play-state:paused" ></circle>
<path id="path21" d="M 876.7598946202132 300.2789933084955
c 0 34.33444958544051 -8.400982345373741 9.862022753264826 -18.263005098638565 9.862022753264826
S 840.2338844229361 334.613442893936 840.2338844229361 300.2789933084955
s 8.400982345373741 -9.862022753264826 18.263005098638565 -9.862022753264826
S 876.7598946202132 265.944543723055 876.7598946202132 300.2789933084955
z" fill="none" stroke="none" style="animation-play-state:paused" ></path>


<circle cx="0" cy="0" r="7.131681051998438" fill="#de9dd6" transform="translate(860.642822265625 290.0539855957031)" style="animation-play-state:paused" ></circle>
<path id="path22" d="M 437.305565430157 277.80813669372634
c 0 28.261187796624853 -6.914971482152889 8.117575218179478 -15.032546700332368 8.117575218179478
S 407.24047202949225 306.06932449035116 407.24047202949225 277.80813669372634
s 6.914971482152889 -8.117575218179478 15.032546700332368 -8.117575218179478
S 437.305565430157 249.5469488971015 437.305565430157 277.80813669372634
z" fill="none" stroke="none" style="animation-play-state:paused" ></path>


<circle cx="0" cy="0" r="6.2646621562845475" fill="#9df871" transform="translate(418.73431396484375 287.0460510253906)" style="animation-play-state:paused" ></circle>
<path id="path23" d="M 1002.0197587376161 251.70205930626756
c 0 20.201912557872895 -4.94302115777741 5.802677011303916 -10.745698169081326 5.802677011303916
S 980.5283623994534 271.90397186414043 980.5283623994534 251.70205930626756
s 4.94302115777741 -5.802677011303916 10.745698169081326 -5.802677011303916
S 1002.0197587376161 231.50014674839466 1002.0197587376161 251.70205930626756
z" fill="none" stroke="none" style="animation-play-state:paused" ></path>


<circle cx="0" cy="0" r="7.739792304581866" fill="#9df871" transform="translate(1000.236572265625 262.37939453125)" style="animation-play-state:paused" ></circle>
<path id="path24" d="M 467.3455089312148 467.20670088348527
c 0 32.652475993971414 -7.9894356155461965 9.378902679119449 -17.368338294665648 9.378902679119449
S 432.6088323418835 499.85917687745666 432.6088323418835 467.20670088348527
s 7.9894356155461965 -9.378902679119449 17.368338294665648 -9.378902679119449
S 467.3455089312148 434.5542248895139 467.3455089312148 467.20670088348527
z" fill="none" stroke="none" style="animation-play-state:paused" ></path>


<circle cx="0" cy="0" r="4.206016322416145" fill="#de9dd6" transform="translate(444.19134521484375 455.3909606933594)" style="animation-play-state:paused" ></circle>
<path id="path25" d="M 488.61909808966254 631.8555550663143
c 0 28.374834580757934 -6.942778674015238 8.150218443409194 -15.092997117424432 8.150218443409194
S 458.4331038548137 660.2303896470722 458.4331038548137 631.8555550663143
s 6.942778674015238 -8.150218443409194 15.092997117424432 -8.150218443409194
S 488.61909808966254 603.4807204855564 488.61909808966254 631.8555550663143
z" fill="none" stroke="none" style="animation-play-state:paused" ></path>


<circle cx="0" cy="0" r="4.877171471279329" fill="#51cacc" transform="translate(484.5739440917969 616.924560546875)" style="animation-play-state:paused" ></circle>
<path id="path26" d="M 677.3531614717648 288.7979351349304
c 0 35.42106100309088 -8.666855351820105 10.174134543440996 -18.840989895261103 10.174134543440996
S 639.6711816812425 324.2189961380213 639.6711816812425 288.7979351349304
s 8.666855351820105 -10.174134543440996 18.840989895261103 -10.174134543440996
S 677.3531614717648 253.37687413183954 677.3531614717648 288.7979351349304
z" fill="none" stroke="none" style="animation-play-state:paused" ></path>


<circle cx="0" cy="0" r="7.352056724470119" fill="#9df871" transform="translate(649.4160766601562 303.9360656738281)" style="animation-play-state:paused" ></circle>
<path id="path27" d="M 714.4517643844648 41.23417469454655
c 0 28.909045473514027 -7.0734898499023675 8.303661997711476 -15.377151847613844 8.303661997711476
S 683.6974606892371 70.14322016806058 683.6974606892371 41.23417469454655
s 7.0734898499023675 -8.303661997711476 15.377151847613844 -8.303661997711476
S 714.4517643844648 12.325129221032526 714.4517643844648 41.23417469454655
z" fill="none" stroke="none" style="animation-play-state:paused" ></path>


<circle cx="0" cy="0" r="7.293346109382834" fill="#51cacc" transform="translate(687.2355346679688 56.62345886230469)" style="animation-play-state:paused" ></circle>
<path id="path28" d="M 1102.1960366229166 195.39666378859346
c 0 19.39566461418629 -4.74574772474771 5.571095155138616 -10.316842879886325 5.571095155138616
S 1081.562350863144 214.79232840277976 1081.562350863144 195.39666378859346
s 4.74574772474771 -5.571095155138616 10.316842879886325 -5.571095155138616
S 1102.1960366229166 176.00099917440716 1102.1960366229166 195.39666378859346
z" fill="none" stroke="none" style="animation-play-state:paused" ></path>


<circle cx="0" cy="0" r="5.040205474760767" fill="#9df871" transform="translate(1093.22216796875 189.5758056640625)" style="animation-play-state:paused" ></circle>
<path id="path29" d="M 856.1750029250037 636.1887703563605
c 0 32.85378799118968 -8.03869280635492 9.436726337894909 -17.475419144249827 9.436726337894909
S 821.224164636504 669.0425583475501 821.224164636504 636.1887703563605
s 8.03869280635492 -9.436726337894909 17.475419144249827 -9.436726337894909
S 856.1750029250037 603.3349823651708 856.1750029250037 636.1887703563605
z" fill="none" stroke="none" style="animation-play-state:paused" ></path>


<circle cx="0" cy="0" r="4.76580996967193" fill="#9df871" transform="translate(854.9766235351562 621.4691772460938)" style="animation-play-state:paused" ></circle></g></svg>