<?xml version="1.0" encoding="utf-8"?><svg xmlns="http://www.w3.org/2000/svg" xmlns:xlink="http://www.w3.org/1999/xlink" width="1496" height="307" preserveAspectRatio="xMidYMid" viewBox="0 0 1496 307" style="z-index:1;margin-right:-2px;display:block;background-repeat-y:initial;background-repeat-x:initial;background-color:rgb(255, 255, 255);animation-play-state:paused" ><g transform="" style="animation-play-state:paused" ><defs style="animation-play-state:paused" ><linearGradient id="ldbk-photon-nq4q5u6dq7r-lg" x1="0" x2="0" y1="0" y2="111.4" gradientUnits="userSpaceOnUse" style="animation-play-state:paused" ><stop stop-color="#ff00ff" offset="0" style="animation-play-state:paused" ></stop>

    
<stop stop-color="#00ffff" offset="1" style="animation-play-state:paused" ></stop></linearGradient>

  
<mask id="ldbk-photon-nq4q5u6dq7r-mask" style="animation-play-state:paused" ><g style="animation-play-state:paused" ><path d="M-0.5 -300 L-0.5 149.37826495312078 A15 15 0 0 0 30.5 149.37826495312078 L30.5 -300" fill="#fff" transform="matrix(1,0,0,1,0,30)" style="transform:matrix(1, 0, 0, 1, 0, 30);animation-play-state:paused" ></path>
<path d="M-0.5 96.2436403462838 L-0.5 119.37826495312078 A15 15 0 0 0 30.5 119.37826495312078 L30.5 96.2436403462838 A15 15 0 0 0 -0.5 96.2436403462838" fill="#fff" transform="matrix(1,0,0,1,0,0)" opacity="1" style="transform:matrix(1, 0, 0, 1, 0, 0);animation-play-state:paused" ></path>
<path d="M29.5 -300 L29.5 71.1321381134122 A15 15 0 0 1 60.5 71.1321381134122 L60.5 -300" fill="#fff" transform="matrix(1,0,0,1,0,18.419172286987305)" style="transform:matrix(1, 0, 0, 1, 0, 18.4192);animation-play-state:paused" ></path>
<path d="M29.5 -60.69212492353904 L29.5 -29.999999999999996 A15 15 0 0 0 60.5 -29.999999999999996 L60.5 -60.69212492353904 A15 15 0 0 0 29.5 -60.69212492353904" fill="#000" transform="matrix(1,0,0,1,0,11.06953239440918)" opacity="1" style="transform:matrix(1, 0, 0, 1, 0, 11.0695);animation-play-state:paused" ></path>
<path d="M59.5 -300 L59.5 120.78263575913594 A15 15 0 0 0 90.5 120.78263575913594 L90.5 -300" fill="#fff" transform="matrix(1,0,0,1,0,81.04320526123047)" style="transform:matrix(1, 0, 0, 1, 0, 81.0432);animation-play-state:paused" ></path>
<path d="M59.5 63.94124712214209 L59.5 90.78263575913594 A15 15 0 0 0 90.5 90.78263575913594 L90.5 63.94124712214209 A15 15 0 0 0 59.5 63.94124712214209" fill="#fff" transform="matrix(1,0,0,1,0,16.448068618774414)" opacity="1" style="transform:matrix(1, 0, 0, 1, 0, 16.4481);animation-play-state:paused" ></path>
<path d="M89.5 -300 L89.5 101.25409556744818 A15 15 0 0 1 120.5 101.25409556744818 L120.5 -300" fill="#fff" transform="matrix(1,0,0,1,0,-80.92504119873047)" style="transform:matrix(1, 0, 0, 1, 0, -80.925);animation-play-state:paused" ></path>
<path d="M89.5 -56.5869488324803 L89.5 -29.999999999999996 A15 15 0 0 0 120.5 -29.999999999999996 L120.5 -56.5869488324803 A15 15 0 0 0 89.5 -56.5869488324803" fill="#000" transform="matrix(1,0,0,1,0,35.32150650024414)" opacity="1" style="transform:matrix(1, 0, 0, 1, 0, 35.3215);animation-play-state:paused" ></path>
<path d="M119.5 -300 L119.5 123.57273906788002 A15 15 0 0 0 150.5 123.57273906788002 L150.5 -300" fill="#fff" transform="matrix(1,0,0,1,0,60.162261962890625)" style="transform:matrix(1, 0, 0, 1, 0, 60.1623);animation-play-state:paused" ></path>
<path d="M119.5 62.2683996501474 L119.5 93.57273906788002 A15 15 0 0 0 150.5 93.57273906788002 L150.5 62.2683996501474 A15 15 0 0 0 119.5 62.2683996501474" fill="#fff" transform="matrix(1,0,0,1,0,38.8271598815918)" opacity="1" style="transform:matrix(1, 0, 0, 1, 0, 38.8272);animation-play-state:paused" ></path>
<path d="M149.5 -300 L149.5 87.27333667571841 A15 15 0 0 1 180.5 87.27333667571841 L180.5 -300" fill="#fff" transform="matrix(1,0,0,1,0,22.40807342529297)" style="transform:matrix(1, 0, 0, 1, 0, 22.4081);animation-play-state:paused" ></path>
<path d="M149.5 -44.4716536424837 L149.5 -30 A15 15 0 0 0 180.5 -30 L180.5 -44.4716536424837 A15 15 0 0 0 149.5 -44.4716536424837" fill="#000" transform="matrix(1,0,0,1,0,74.8589096069336)" opacity="0.571429" style="transform:matrix(1, 0, 0, 1, 0, 74.8589);opacity:0.571429;animation-play-state:paused" ></path>
<path d="M179.5 -300 L179.5 117.05302646734428 A15 15 0 0 0 210.5 117.05302646734428 L210.5 -300" fill="#fff" transform="matrix(1,0,0,1,0,57.31793975830078)" style="transform:matrix(1, 0, 0, 1, 0, 57.3179);animation-play-state:paused" ></path>
<path d="M179.5 55.61626369888549 L179.5 87.05302646734428 A15 15 0 0 0 210.5 87.05302646734428 L210.5 55.61626369888549 A15 15 0 0 0 179.5 55.61626369888549" fill="#fff" transform="matrix(1,0,0,1,0,76.19432830810547)" opacity="0.914286" style="transform:matrix(1, 0, 0, 1, 0, 76.1943);opacity:0.914286;animation-play-state:paused" ></path>
<path d="M209.5 -300 L209.5 99.56155706055253 A15 15 0 0 1 240.5 99.56155706055253 L240.5 -300" fill="#fff" transform="matrix(1,0,0,1,0,-50.30705261230469)" style="transform:matrix(1, 0, 0, 1, 0, -50.3071);animation-play-state:paused" ></path>
<path d="M209.5 -67.40972706865008 L209.5 -30.000000000000007 A15 15 0 0 0 240.5 -30.000000000000007 L240.5 -67.40972706865008 A15 15 0 0 0 209.5 -67.40972706865008" fill="#000" transform="matrix(1,0,0,1,0,49.14179229736328)" opacity="0.828571" style="transform:matrix(1, 0, 0, 1, 0, 49.1418);opacity:0.828571;animation-play-state:paused" ></path>
<path d="M239.5 -300 L239.5 143.15589810865902 A15 15 0 0 0 270.5 143.15589810865902 L270.5 -300" fill="#fff" transform="matrix(1,0,0,1,0,84.28013610839844)" style="transform:matrix(1, 0, 0, 1, 0, 84.2801);animation-play-state:paused" ></path>
<path d="M239.5 85.0964097445722 L239.5 113.15589810865902 A15 15 0 0 0 270.5 113.15589810865902 L270.5 85.0964097445722 A15 15 0 0 0 239.5 85.0964097445722" fill="#fff" transform="matrix(1,0,0,1,0,69.72859191894531)" opacity="0.8" style="transform:matrix(1, 0, 0, 1, 0, 69.7286);opacity:0.8;animation-play-state:paused" ></path>
<path d="M269.5 -300 L269.5 80.12076890601693 A15 15 0 0 1 300.5 80.12076890601693 L300.5 -300" fill="#fff" transform="matrix(1,0,0,1,0,26.283252716064453)" style="transform:matrix(1, 0, 0, 1, 0, 26.2833);animation-play-state:paused" ></path>
<path d="M269.5 -44.68475726874614 L269.5 -30 A15 15 0 0 0 300.5 -30 L300.5 -44.68475726874614 A15 15 0 0 0 269.5 -44.68475726874614" fill="#000" transform="matrix(1,0,0,1,0,62.43199920654297)" opacity="0.542857" style="transform:matrix(1, 0, 0, 1, 0, 62.432);opacity:0.542857;animation-play-state:paused" ></path>
<path d="M299.5 -300 L299.5 153.17227322291635 A15 15 0 0 0 330.5 153.17227322291635 L330.5 -300" fill="#fff" transform="matrix(1,0,0,1,0,94.94375610351562)" style="transform:matrix(1, 0, 0, 1, 0, 94.9438);animation-play-state:paused" ></path>
<path d="M299.5 98.53216598552808 L299.5 123.17227322291635 A15 15 0 0 0 330.5 123.17227322291635 L330.5 98.53216598552808 A15 15 0 0 0 299.5 98.53216598552808" fill="#fff" transform="matrix(1,0,0,1,0,118.36058807373047)" opacity="0.571429" style="transform:matrix(1, 0, 0, 1, 0, 118.361);opacity:0.571429;animation-play-state:paused" ></path>
<path d="M329.5 -300 L329.5 74.13667726977553 A15 15 0 0 1 360.5 74.13667726977553 L360.5 -300" fill="#fff" transform="matrix(1,0,0,1,0,29.787086486816406)" style="transform:matrix(1, 0, 0, 1, 0, 29.7871);animation-play-state:paused" ></path>
<path d="M329.5 -60.63755126777677 L329.5 -29.999999999999996 A15 15 0 0 0 360.5 -29.999999999999996 L360.5 -60.63755126777677 A15 15 0 0 0 329.5 -60.63755126777677" fill="#000" transform="matrix(1,0,0,1,0,141.688232421875)" opacity="0.0285714" style="transform:matrix(1, 0, 0, 1, 0, 141.688);opacity:0.0285714;animation-play-state:paused" ></path>
<path d="M359.5 -300 L359.5 120.49747608514124 A15 15 0 0 0 390.5 120.49747608514124 L390.5 -300" fill="#fff" transform="matrix(1,0,0,1,0,95.59471130371094)" style="transform:matrix(1, 0, 0, 1, 0, 95.5947);animation-play-state:paused" ></path>
<path d="M359.5 53.97695109000361 L359.5 90.49747608514124 A15 15 0 0 0 390.5 90.49747608514124 L390.5 53.97695109000361 A15 15 0 0 0 359.5 53.97695109000361" fill="#fff" transform="matrix(1,0,0,1,0,154.5951385498047)" opacity="0.4" style="transform:matrix(1, 0, 0, 1, 0, 154.595);opacity:0.4;animation-play-state:paused" ></path>
<path d="M389.5 -300 L389.5 126.99121482276846 A15 15 0 0 1 420.5 126.99121482276846 L420.5 -300" fill="#fff" transform="matrix(1,0,0,1,0,-36.6607666015625)" style="transform:matrix(1, 0, 0, 1, 0, -36.6608);animation-play-state:paused" ></path>
<path d="M389.5 -59.7350890452089 L389.5 -30 A15 15 0 0 0 420.5 -30 L420.5 -59.7350890452089 A15 15 0 0 0 389.5 -59.7350890452089" fill="#000" transform="matrix(1,0,0,1,0,130.34341430664062)" opacity="0.314286" style="transform:matrix(1, 0, 0, 1, 0, 130.343);opacity:0.314286;animation-play-state:paused" ></path>
<path d="M419.5 -300 L419.5 176.42962238657844 A15 15 0 0 0 450.5 176.42962238657844 L450.5 -300" fill="#fff" transform="matrix(1,0,0,1,0,40.1290397644043)" style="transform:matrix(1, 0, 0, 1, 0, 40.129);animation-play-state:paused" ></path>
<path d="M419.5 127.35877843915111 L419.5 146.42962238657844 A15 15 0 0 0 450.5 146.42962238657844 L450.5 127.35877843915111 A15 15 0 0 0 419.5 127.35877843915111" fill="#fff" transform="matrix(1,0,0,1,0,110.60900115966797)" opacity="0.457143" style="transform:matrix(1, 0, 0, 1, 0, 110.609);opacity:0.457143;animation-play-state:paused" ></path>
<path d="M449.5 -300 L449.5 98.25901952613229 A15 15 0 0 1 480.5 98.25901952613229 L480.5 -300" fill="#fff" transform="matrix(1,0,0,1,0,-59.637725830078125)" style="transform:matrix(1, 0, 0, 1, 0, -59.6377);animation-play-state:paused" ></path>
<path d="M449.5 -51.761386191321094 L449.5 -30 A15 15 0 0 0 480.5 -30 L480.5 -51.761386191321094 A15 15 0 0 0 449.5 -51.761386191321094" fill="#000" transform="matrix(1,0,0,1,0,142.6336212158203)" opacity="0.285714" style="transform:matrix(1, 0, 0, 1, 0, 142.634);opacity:0.285714;animation-play-state:paused" ></path>
<path d="M479.5 -300 L479.5 165.09687425005438 A15 15 0 0 0 510.5 165.09687425005438 L510.5 -300" fill="#fff" transform="matrix(1,0,0,1,0,33.28746795654297)" style="transform:matrix(1, 0, 0, 1, 0, 33.2875);animation-play-state:paused" ></path>
<path d="M479.5 118.03356615931682 L479.5 135.09687425005438 A15 15 0 0 0 510.5 135.09687425005438 L510.5 118.03356615931682 A15 15 0 0 0 479.5 118.03356615931682" fill="#fff" transform="matrix(1,0,0,1,0,160.2541046142578)" opacity="0.0571429" style="transform:matrix(1, 0, 0, 1, 0, 160.254);opacity:0.0571429;animation-play-state:paused" ></path>
<path d="M509.5 -300 L509.5 105.55261177117649 A15 15 0 0 1 540.5 105.55261177117649 L540.5 -300" fill="#fff" transform="matrix(1,0,0,1,0,28.189064025878906)" style="transform:matrix(1, 0, 0, 1, 0, 28.1891);animation-play-state:paused" ></path>
<path d="M509.5 -41.54512241812109 L509.5 -30 A15 15 0 0 0 540.5 -30 L540.5 -41.54512241812109 A15 15 0 0 0 509.5 -41.54512241812109" fill="#000" transform="matrix(1,0,0,1,0,2.7644832134246826)" opacity="1" style="transform:matrix(1, 0, 0, 1, 0, 2.76448);animation-play-state:paused" ></path>
<path d="M539.5 -300 L539.5 144.10822958296876 A15 15 0 0 0 570.5 144.10822958296876 L570.5 -300" fill="#fff" transform="matrix(1,0,0,1,0,40.542205810546875)" style="transform:matrix(1, 0, 0, 1, 0, 40.5422);animation-play-state:paused" ></path>
<path d="M539.5 79.10396225169885 L539.5 114.10822958296876 A15 15 0 0 0 570.5 114.10822958296876 L570.5 79.10396225169885 A15 15 0 0 0 539.5 79.10396225169885" fill="#fff" transform="matrix(1,0,0,1,0,12.210342407226562)" opacity="1" style="transform:matrix(1, 0, 0, 1, 0, 12.2103);animation-play-state:paused" ></path>
<path d="M569.5 -300 L569.5 92.96521372076089 A15 15 0 0 1 600.5 92.96521372076089 L600.5 -300" fill="#fff" transform="matrix(1,0,0,1,0,16.052230834960938)" style="transform:matrix(1, 0, 0, 1, 0, 16.0522);animation-play-state:paused" ></path>
<path d="M569.5 -47.093711651173116 L569.5 -30 A15 15 0 0 0 600.5 -30 L600.5 -47.093711651173116 A15 15 0 0 0 569.5 -47.093711651173116" fill="#000" transform="matrix(1,0,0,1,0,19.272666931152344)" opacity="1" style="transform:matrix(1, 0, 0, 1, 0, 19.2727);animation-play-state:paused" ></path>
<path d="M599.5 -300 L599.5 135.50905991267047 A15 15 0 0 0 630.5 135.50905991267047 L630.5 -300" fill="#fff" transform="matrix(1,0,0,1,0,65.71426391601562)" style="transform:matrix(1, 0, 0, 1, 0, 65.7143);animation-play-state:paused" ></path>
<path d="M599.5 87.70751885196472 L599.5 105.50905991267047 A15 15 0 0 0 630.5 105.50905991267047 L630.5 87.70751885196472 A15 15 0 0 0 599.5 87.70751885196472" fill="#fff" transform="matrix(1,0,0,1,0,57.5148811340332)" opacity="0.857143" style="transform:matrix(1, 0, 0, 1, 0, 57.5149);opacity:0.857143;animation-play-state:paused" ></path>
<path d="M629.5 -300 L629.5 108.82556249392259 A15 15 0 0 1 660.5 108.82556249392259 L660.5 -300" fill="#fff" transform="matrix(1,0,0,1,0,-14.04977798461914)" style="transform:matrix(1, 0, 0, 1, 0, -14.0498);animation-play-state:paused" ></path>
<path d="M629.5 -65.17406619806894 L629.5 -30 A15 15 0 0 0 660.5 -30 L660.5 -65.17406619806894 A15 15 0 0 0 629.5 -65.17406619806894" fill="#000" transform="matrix(1,0,0,1,0,61.955528259277344)" opacity="0.685714" style="transform:matrix(1, 0, 0, 1, 0, 61.9555);opacity:0.685714;animation-play-state:paused" ></path>
<path d="M659.5 -300 L659.5 167.01308327553713 A15 15 0 0 0 690.5 167.01308327553713 L690.5 -300" fill="#fff" transform="matrix(1,0,0,1,0,69.88067626953125)" style="transform:matrix(1, 0, 0, 1, 0, 69.8807);animation-play-state:paused" ></path>
<path d="M659.5 114.6066652579099 L659.5 137.01308327553713 A15 15 0 0 0 690.5 137.01308327553713 L690.5 114.6066652579099 A15 15 0 0 0 659.5 114.6066652579099" fill="#fff" transform="matrix(1,0,0,1,0,146.23207092285156)" opacity="0.514286" style="transform:matrix(1, 0, 0, 1, 0, 146.232);opacity:0.514286;animation-play-state:paused" ></path>
<path d="M689.5 -300 L689.5 85.83188250629726 A15 15 0 0 1 720.5 85.83188250629726 L720.5 -300" fill="#fff" transform="matrix(1,0,0,1,0,-50.04131317138672)" style="transform:matrix(1, 0, 0, 1, 0, -50.0413);animation-play-state:paused" ></path>
<path d="M689.5 -65.49371984491762 L689.5 -30 A15 15 0 0 0 720.5 -30 L720.5 -65.49371984491762 A15 15 0 0 0 689.5 -65.49371984491762" fill="#000" transform="matrix(1,0,0,1,0,66.02745056152344)" opacity="0.885714" style="transform:matrix(1, 0, 0, 1, 0, 66.0275);opacity:0.885714;animation-play-state:paused" ></path>
<path d="M719.5 -300 L719.5 139.09578934508494 A15 15 0 0 0 750.5 139.09578934508494 L750.5 -300" fill="#fff" transform="matrix(1,0,0,1,0,51.45378112792969)" style="transform:matrix(1, 0, 0, 1, 0, 51.4538);animation-play-state:paused" ></path>
<path d="M719.5 86.69073955191402 L719.5 109.09578934508494 A15 15 0 0 0 750.5 109.09578934508494 L750.5 86.69073955191402 A15 15 0 0 0 719.5 86.69073955191402" fill="#fff" transform="matrix(1,0,0,1,0,193.83029174804688)" opacity="0.171429" style="transform:matrix(1, 0, 0, 1, 0, 193.83);opacity:0.171429;animation-play-state:paused" ></path>
<path d="M749.5 -300 L749.5 30.712155827664432 A15 15 0 0 1 780.5 30.712155827664432 L780.5 -300" fill="#fff" transform="matrix(1,0,0,1,0,30)" style="transform:matrix(1, 0, 0, 1, 0, 30);animation-play-state:paused" ></path>
<path d="M749.5 -42.72850825196373 L749.5 -29.999999999999996 A15 15 0 0 0 780.5 -29.999999999999996 L780.5 -42.72850825196373 A15 15 0 0 0 749.5 -42.72850825196373" fill="#000" transform="matrix(1,0,0,1,0,69.05793762207031)" opacity="0.714286" style="transform:matrix(1, 0, 0, 1, 0, 69.0579);opacity:0.714286;animation-play-state:paused" ></path>
<path d="M779.5 -300 L779.5 162.53483824499682 A15 15 0 0 0 810.5 162.53483824499682 L810.5 -300" fill="#fff" transform="matrix(1,0,0,1,0,52.822792053222656)" style="transform:matrix(1, 0, 0, 1, 0, 52.8228);animation-play-state:paused" ></path>
<path d="M779.5 119.85340563065498 L779.5 132.53483824499682 A15 15 0 0 0 810.5 132.53483824499682 L810.5 119.85340563065498 A15 15 0 0 0 779.5 119.85340563065498" fill="#fff" transform="matrix(1,0,0,1,0,130.3835906982422)" opacity="0.457143" style="transform:matrix(1, 0, 0, 1, 0, 130.384);opacity:0.457143;animation-play-state:paused" ></path>
<path d="M809.5 -300 L809.5 47.529315368739915 A15 15 0 0 1 840.5 47.529315368739915 L840.5 -300" fill="#fff" transform="matrix(1,0,0,1,0,15.498184204101562)" style="transform:matrix(1, 0, 0, 1, 0, 15.4982);animation-play-state:paused" ></path>
<path d="M809.5 -53.286402579427616 L809.5 -30 A15 15 0 0 0 840.5 -30 L840.5 -53.286402579427616 A15 15 0 0 0 809.5 -53.286402579427616" fill="#000" transform="matrix(1,0,0,1,0,109.91508483886719)" opacity="0.2" style="transform:matrix(1, 0, 0, 1, 0, 109.915);opacity:0.2;animation-play-state:paused" ></path>
<path d="M839.5 -300 L839.5 150.59649958214308 A15 15 0 0 0 870.5 150.59649958214308 L870.5 -300" fill="#fff" transform="matrix(1,0,0,1,0,55.23635482788086)" style="transform:matrix(1, 0, 0, 1, 0, 55.2364);animation-play-state:paused" ></path>
<path d="M839.5 91.94939443303444 L839.5 120.59649958214308 A15 15 0 0 0 870.5 120.59649958214308 L870.5 91.94939443303444 A15 15 0 0 0 839.5 91.94939443303444" fill="#fff" transform="matrix(1,0,0,1,0,106.63699340820312)" opacity="0.457143" style="transform:matrix(1, 0, 0, 1, 0, 106.637);opacity:0.457143;animation-play-state:paused" ></path>
<path d="M869.5 -300 L869.5 67.39508784329773 A15 15 0 0 1 900.5 67.39508784329773 L900.5 -300" fill="#fff" transform="matrix(1,0,0,1,0,-97.60359191894531)" style="transform:matrix(1, 0, 0, 1, 0, -97.6036);animation-play-state:paused" ></path>
<path d="M869.5 -69.42410404180274 L869.5 -30 A15 15 0 0 0 900.5 -30 L900.5 -69.42410404180274 A15 15 0 0 0 869.5 -69.42410404180274" fill="#000" transform="matrix(1,0,0,1,0,96.84777069091797)" opacity="0.371429" style="transform:matrix(1, 0, 0, 1, 0, 96.8478);opacity:0.371429;animation-play-state:paused" ></path>
<path d="M899.5 -300 L899.5 107.27096319395774 A15 15 0 0 0 930.5 107.27096319395774 L930.5 -300" fill="#fff" transform="matrix(1,0,0,1,0,75.25656127929688)" style="transform:matrix(1, 0, 0, 1, 0, 75.2566);animation-play-state:paused" ></path>
<path d="M899.5 43.098523163037356 L899.5 77.27096319395773 A15 15 0 0 0 930.5 77.27096319395773 L930.5 43.098523163037356 A15 15 0 0 0 899.5 43.098523163037356" fill="#fff" transform="matrix(1,0,0,1,0,141.27525329589844)" opacity="0.285714" style="transform:matrix(1, 0, 0, 1, 0, 141.275);opacity:0.285714;animation-play-state:paused" ></path>
<path d="M929.5 -300 L929.5 34.32405229863908 A15 15 0 0 1 960.5 34.32405229863908 L960.5 -300" fill="#fff" transform="matrix(1,0,0,1,0,-38.610023498535156)" style="transform:matrix(1, 0, 0, 1, 0, -38.61);animation-play-state:paused" ></path>
<path d="M929.5 -44.4439949917564 L929.5 -30 A15 15 0 0 0 960.5 -30 L960.5 -44.4439949917564 A15 15 0 0 0 929.5 -44.4439949917564" fill="#000" transform="matrix(1,0,0,1,0,108.45471954345703)" opacity="0.4" style="transform:matrix(1, 0, 0, 1, 0, 108.455);opacity:0.4;animation-play-state:paused" ></path>
<path d="M959.5 -300 L959.5 56.41506831810978 A15 15 0 0 0 990.5 56.41506831810978 L990.5 -300" fill="#fff" transform="matrix(1,0,0,1,0,32.2308464050293)" style="transform:matrix(1, 0, 0, 1, 0, 32.2308);animation-play-state:paused" ></path>
<path d="M959.5 9.649695405792592 L959.5 26.415068318109782 A15 15 0 0 0 990.5 26.415068318109782 L990.5 9.649695405792592 A15 15 0 0 0 959.5 9.649695405792592" fill="#fff" transform="matrix(1,0,0,1,0,121.60386657714844)" opacity="0.114286" style="transform:matrix(1, 0, 0, 1, 0, 121.604);opacity:0.114286;animation-play-state:paused" ></path>
<path d="M989.5 -300 L989.5 46.089700942922875 A15 15 0 0 1 1020.5 46.089700942922875 L1020.5 -300" fill="#fff" transform="matrix(1,0,0,1,0,28.94482421875)" style="transform:matrix(1, 0, 0, 1, 0, 28.9448);animation-play-state:paused" ></path>
<path d="M989.5 -42.27525178986586 L989.5 -30 A15 15 0 0 0 1020.5 -30 L1020.5 -42.27525178986586 A15 15 0 0 0 989.5 -42.27525178986586" fill="#000" transform="matrix(1,0,0,1,0,133.8970947265625)" opacity="0.0857143" style="transform:matrix(1, 0, 0, 1, 0, 133.897);opacity:0.0857143;animation-play-state:paused" ></path>
<path d="M1019.5 -300 L1019.5 110.4527270022621 A15 15 0 0 0 1050.5 110.4527270022621 L1050.5 -300" fill="#fff" transform="matrix(1,0,0,1,0,31.381601333618164)" style="transform:matrix(1, 0, 0, 1, 0, 31.3816);animation-play-state:paused" ></path>
<path d="M1019.5 55.919910184063056 L1019.5 80.4527270022621 A15 15 0 0 0 1050.5 80.4527270022621 L1050.5 55.919910184063056 A15 15 0 0 0 1019.5 55.919910184063056" fill="#fff" transform="matrix(1,0,0,1,0,6.266019344329834)" opacity="1" style="transform:matrix(1, 0, 0, 1, 0, 6.26602);animation-play-state:paused" ></path>
<path d="M1049.5 -300 L1049.5 48.47491480000595 A15 15 0 0 1 1080.5 48.47491480000595 L1080.5 -300" fill="#fff" transform="matrix(1,0,0,1,0,24.603668212890625)" style="transform:matrix(1, 0, 0, 1, 0, 24.6037);animation-play-state:paused" ></path>
<path d="M1049.5 -42.61468201581623 L1049.5 -30 A15 15 0 0 0 1080.5 -30 L1080.5 -42.61468201581623 A15 15 0 0 0 1049.5 -42.61468201581623" fill="#000" transform="matrix(1,0,0,1,0,29.15292739868164)" opacity="1" style="transform:matrix(1, 0, 0, 1, 0, 29.1529);animation-play-state:paused" ></path>
<path d="M1079.5 -300 L1079.5 70.36412845397395 A15 15 0 0 0 1110.5 70.36412845397395 L1110.5 -300" fill="#fff" transform="matrix(1,0,0,1,0,63.70280075073242)" style="transform:matrix(1, 0, 0, 1, 0, 63.7028);animation-play-state:paused" ></path>
<path d="M1079.5 26.800472535736425 L1079.5 40.36412845397395 A15 15 0 0 0 1110.5 40.36412845397395 L1110.5 26.800472535736425 A15 15 0 0 0 1079.5 26.800472535736425" fill="#fff" transform="matrix(1,0,0,1,0,82.27313232421875)" opacity="0.742857" style="transform:matrix(1, 0, 0, 1, 0, 82.2731);opacity:0.742857;animation-play-state:paused" ></path>
<path d="M1109.5 -300 L1109.5 45.97932894130314 A15 15 0 0 1 1140.5 45.97932894130314 L1140.5 -300" fill="#fff" transform="matrix(1,0,0,1,0,-19.504467010498047)" style="transform:matrix(1, 0, 0, 1, 0, -19.5045);animation-play-state:paused" ></path>
<path d="M1109.5 -47.975086244343984 L1109.5 -30.000000000000004 A15 15 0 0 0 1140.5 -30.000000000000004 L1140.5 -47.975086244343984 A15 15 0 0 0 1109.5 -47.975086244343984" fill="#000" transform="matrix(1,0,0,1,0,100.09175109863281)" opacity="0.485714" style="transform:matrix(1, 0, 0, 1, 0, 100.092);opacity:0.485714;animation-play-state:paused" ></path>
<path d="M1139.5 -300 L1139.5 84.1563041354388 A15 15 0 0 0 1170.5 84.1563041354388 L1170.5 -300" fill="#fff" transform="matrix(1,0,0,1,0,60.45451354980469)" style="transform:matrix(1, 0, 0, 1, 0, 60.4545);animation-play-state:paused" ></path>
<path d="M1139.5 38.08516155522372 L1139.5 54.15630413543881 A15 15 0 0 0 1170.5 54.15630413543881 L1170.5 38.08516155522372 A15 15 0 0 0 1139.5 38.08516155522372" fill="#fff" transform="matrix(1,0,0,1,0,191.2276611328125)" opacity="0.228571" style="transform:matrix(1, 0, 0, 1, 0, 191.228);opacity:0.228571;animation-play-state:paused" ></path>
<path d="M1169.5 -300 L1169.5 39.62821452054605 A15 15 0 0 1 1200.5 39.62821452054605 L1200.5 -300" fill="#fff" transform="matrix(1,0,0,1,0,29.775272369384766)" style="transform:matrix(1, 0, 0, 1, 0, 29.7753);animation-play-state:paused" ></path>
<path d="M1169.5 -53.079729116623305 L1169.5 -30 A15 15 0 0 0 1200.5 -30 L1200.5 -53.079729116623305 A15 15 0 0 0 1169.5 -53.079729116623305" fill="#000" transform="matrix(1,0,0,1,0,68.28335571289062)" opacity="0.457143" style="transform:matrix(1, 0, 0, 1, 0, 68.2834);opacity:0.457143;animation-play-state:paused" ></path>
<path d="M1199.5 -300 L1199.5 65.21260490197807 A15 15 0 0 0 1230.5 65.21260490197807 L1230.5 -300" fill="#fff" transform="matrix(1,0,0,1,0,42.54872512817383)" style="transform:matrix(1, 0, 0, 1, 0, 42.5487);animation-play-state:paused" ></path>
<path d="M1199.5 23.82124642966904 L1199.5 35.21260490197807 A15 15 0 0 0 1230.5 35.21260490197807 L1230.5 23.82124642966904 A15 15 0 0 0 1199.5 23.82124642966904" fill="#fff" transform="matrix(1,0,0,1,0,85.54420471191406)" opacity="0.857143" style="transform:matrix(1, 0, 0, 1, 0, 85.5442);opacity:0.857143;animation-play-state:paused" ></path>
<path d="M1229.5 -300 L1229.5 27.451319156737313 A15 15 0 0 1 1260.5 27.451319156737313 L1260.5 -300" fill="#fff" transform="matrix(1,0,0,1,0,-86.97782897949219)" style="transform:matrix(1, 0, 0, 1, 0, -86.9778);animation-play-state:paused" ></path>
<path d="M1229.5 -68.1750049033173 L1229.5 -30 A15 15 0 0 0 1260.5 -30 L1260.5 -68.1750049033173 A15 15 0 0 0 1229.5 -68.1750049033173" fill="#000" transform="matrix(1,0,0,1,0,51.024051666259766)" opacity="0.885714" style="transform:matrix(1, 0, 0, 1, 0, 51.0241);opacity:0.885714;animation-play-state:paused" ></path>
<path d="M1259.5 -300 L1259.5 76.14498734116681 A15 15 0 0 0 1290.5 76.14498734116681 L1290.5 -300" fill="#fff" transform="matrix(1,0,0,1,0,57.54528045654297)" style="transform:matrix(1, 0, 0, 1, 0, 57.5453);animation-play-state:paused" ></path>
<path d="M1259.5 11.79401106404783 L1259.5 46.14498734116681 A15 15 0 0 0 1290.5 46.14498734116681 L1290.5 11.79401106404783 A15 15 0 0 0 1259.5 11.79401106404783" fill="#fff" transform="matrix(1,0,0,1,0,106.90605926513672)" opacity="0.628571" style="transform:matrix(1, 0, 0, 1, 0, 106.906);opacity:0.628571;animation-play-state:paused" ></path>
<path d="M1289.5 -300 L1289.5 37.8204582726904 A15 15 0 0 1 1320.5 37.8204582726904 L1320.5 -300" fill="#fff" transform="matrix(1,0,0,1,0,-38.148380279541016)" style="transform:matrix(1, 0, 0, 1, 0, -38.1484);animation-play-state:paused" ></path>
<path d="M1289.5 -62.63056090374806 L1289.5 -30 A15 15 0 0 0 1320.5 -30 L1320.5 -62.63056090374806 A15 15 0 0 0 1289.5 -62.63056090374806" fill="#000" transform="matrix(1,0,0,1,0,111.61102294921875)" opacity="0.6" style="transform:matrix(1, 0, 0, 1, 0, 111.611);opacity:0.6;animation-play-state:paused" ></path>
<path d="M1319.5 -300 L1319.5 94.71610464950341 A15 15 0 0 0 1350.5 94.71610464950341 L1350.5 -300" fill="#fff" transform="matrix(1,0,0,1,0,31.37069320678711)" style="transform:matrix(1, 0, 0, 1, 0, 31.3707);animation-play-state:paused" ></path>
<path d="M1319.5 45.020601483812015 L1319.5 64.7161046495034 A15 15 0 0 0 1350.5 64.7161046495034 L1350.5 45.020601483812015 A15 15 0 0 0 1319.5 45.020601483812015" fill="#fff" transform="matrix(1,0,0,1,0,116.24617767333984)" opacity="0.514286" style="transform:matrix(1, 0, 0, 1, 0, 116.246);opacity:0.514286;animation-play-state:paused" ></path>
<path d="M1349.5 -300 L1349.5 41.558611342666 A15 15 0 0 1 1380.5 41.558611342666 L1380.5 -300" fill="#fff" transform="matrix(1,0,0,1,0,24.526453018188477)" style="transform:matrix(1, 0, 0, 1, 0, 24.5265);animation-play-state:paused" ></path>
<path d="M1349.5 -48.62605553012333 L1349.5 -30 A15 15 0 0 0 1380.5 -30 L1380.5 -48.62605553012333 A15 15 0 0 0 1349.5 -48.62605553012333" fill="#000" transform="matrix(1,0,0,1,0,12.26738452911377)" opacity="1" style="transform:matrix(1, 0, 0, 1, 0, 12.2674);animation-play-state:paused" ></path>
<path d="M1379.5 -300 L1379.5 101.00823321308427 A15 15 0 0 0 1410.5 101.00823321308427 L1410.5 -300" fill="#fff" transform="matrix(1,0,0,1,0,61.39265441894531)" style="transform:matrix(1, 0, 0, 1, 0, 61.3927);animation-play-state:paused" ></path>
<path d="M1379.5 43.274368980961185 L1379.5 71.00823321308428 A15 15 0 0 0 1410.5 71.00823321308428 L1410.5 43.274368980961185 A15 15 0 0 0 1379.5 43.274368980961185" fill="#fff" transform="matrix(1,0,0,1,0,164.47512817382812)" opacity="0.342857" style="transform:matrix(1, 0, 0, 1, 0, 164.475);opacity:0.342857;animation-play-state:paused" ></path>
<path d="M1409.5 -300 L1409.5 55.32782487665725 A15 15 0 0 1 1440.5 55.32782487665725 L1440.5 -300" fill="#fff" transform="matrix(1,0,0,1,0,-59.997657775878906)" style="transform:matrix(1, 0, 0, 1, 0, -59.9977);animation-play-state:paused" ></path>
<path d="M1409.5 -64.53881179459418 L1409.5 -30 A15 15 0 0 0 1440.5 -30 L1440.5 -64.53881179459418 A15 15 0 0 0 1409.5 -64.53881179459418" fill="#000" transform="matrix(1,0,0,1,0,127.42627716064453)" opacity="0.257143" style="transform:matrix(1, 0, 0, 1, 0, 127.426);opacity:0.257143;animation-play-state:paused" ></path>
<path d="M1439.5 -300 L1439.5 70.95434998490536 A15 15 0 0 0 1470.5 70.95434998490536 L1470.5 -300" fill="#fff" transform="matrix(1,0,0,1,0,34.97727966308594)" style="transform:matrix(1, 0, 0, 1, 0, 34.9773);animation-play-state:paused" ></path>
<path d="M1439.5 6.384139942623875 L1439.5 40.95434998490536 A15 15 0 0 0 1470.5 40.95434998490536 L1470.5 6.384139942623875 A15 15 0 0 0 1439.5 6.384139942623875" fill="#fff" transform="matrix(1,0,0,1,0,134.32455444335938)" opacity="0.514286" style="transform:matrix(1, 0, 0, 1, 0, 134.325);opacity:0.514286;animation-play-state:paused" ></path>
<path d="M1469.5 -300 L1469.5 100.68056124740116 A15 15 0 0 1 1500.5 100.68056124740116 L1500.5 -300" fill="#fff" transform="matrix(1,0,0,1,0,19.043052673339844)" style="transform:matrix(1, 0, 0, 1, 0, 19.0431);animation-play-state:paused" ></path>
<path d="M1469.5 -57.01197602611158 L1469.5 -30 A15 15 0 0 0 1500.5 -30 L1500.5 -57.01197602611158 A15 15 0 0 0 1469.5 -57.01197602611158" fill="#000" transform="matrix(1,0,0,1,0,131.77142333984375)" opacity="0.0857143" style="transform:matrix(1, 0, 0, 1, 0, 131.771);opacity:0.0857143;animation-play-state:paused" ></path></g></mask></defs>


<rect x="0" y="0" width="1496" height="307" fill="url(#ldbk-photon-nq4q5u6dq7r-lg)" mask="url(#ldbk-photon-nq4q5u6dq7r-mask)" style="animation-play-state:paused" ></rect></g></svg>